<svg stroke="#DDDDDDDD" fill="#DDDDDD" stroke-width="0" viewBox="19.791 42.969 595.77 539.093" height="250px" width="250px" xmlns="http://www.w3.org/2000/svg" version="1.1" xmlns:xlink="http://www.w3.org/1999/xlink"><path d="M135.195 42.969c-34.588 0 -62.813 29.025 -62.813 65.662 0 36.641 28.225 65.705 62.813 65.705 34.59 0 62.813 -29.065 62.813 -65.705s-28.223 -65.662 -62.813 -65.662zm391.331 16.329a61.492 61.492 0 0 0 -6.407 0.313c-7.675 0.762 -14.56 3.043 -20.938 6.366 34.417 28.682 56.017 66.35 69.493 107.853 14.395 -13.234 22.7 -33.056 20.507 -55.078 -3.4 -34.145 -30.9 -59.265 -62.656 -59.454zm-173.207 147.46c-0.525 0 -1.058 0.019 -1.6 0.037 -14.303 0.557 -34.64 8.754 -61.641 30.51 4.815 9.088 8.275 19.516 10.662 30.859 2.912 13.835 4.287 29.167 4.103 45.238 29.308 28.279 48.113 67.634 57.579 107.928 24.265 -44.96 37.645 -114.938 30.35 -162.266 -4.328 -28.085 -14.846 -45.95 -29.688 -50.82 -2.84 -0.932 -6.088 -1.479 -9.765 -1.485zm104.844 10.662c-12.7 0.185 -28.234 4.705 -47.459 15.625 2.262 7.109 3.955 14.675 5.156 22.463 2.533 16.447 3.12 34.525 1.953 53.125 33.76 31.875 56.225 79.7 66.329 127.85 26.387 -37 39.825 -104.322 30.938 -154.1 -5.05 -28.285 -16.7 -49.803 -33.047 -59.1 -6.641 -3.779 -14.481 -5.996 -23.868 -5.863zm-214.688 11.605c-13.154 -0.006 -33.332 9.335 -59.803 37.85a79.637 79.637 0 0 1 4.572 10.547c6.063 17.235 7.969 38.465 5.195 60.82 0.006 0.009 -0.006 0.03 0 0.037 25.363 37.119 41.754 70.89 50.975 100.391 31.895 -49.371 42.955 -120.494 33.438 -165.703 -2.694 -12.807 -6.963 -23.4 -12.069 -30.704 -5.108 -7.302 -10.573 -11.234 -17.031 -12.695 -1.615 -0.365 -3.363 -0.546 -5.275 -0.546zm289.688 11.563a51.411 51.411 0 0 0 -6.444 0.468c5.265 11.31 8.96 23.963 11.329 37.225 2.391 13.392 3.535 27.588 3.475 42.032 32.535 39.938 46.517 97.95 44.884 151.406 30.254 -40.068 35.238 -97.457 22.85 -145.547 -7.416 -28.8 -21.065 -53.779 -37.537 -68.828 -11.84 -10.817 -24.438 -16.834 -38.555 -16.757zm-390.037 23.085c-9.897 0.5 -27.281 9.938 -48.475 37.031 27.658 36.938 43.704 71.063 51.053 100.507 25.51 -39.658 30.012 -88.994 20.507 -116.017 -2.75 -7.819 -6.493 -13.603 -10.353 -16.993 -3.863 -3.387 -7.547 -4.792 -12.735 -4.531zm-86.993 46.757c-36.012 0.8 -46.154 48.557 -26.406 89.296 18.459 -15.76 34.329 -43.19 34.103 -88.787q-4.025 -0.593 -7.695 -0.507zm30 18.632c-3.563 38.371 -18.198 66.15 -36.912 84.18 13.3 34.75 29.448 54.26 41.991 61.64 6.692 3.938 12 4.668 16.25 3.868 4.248 -0.8 8.006 -3.125 11.563 -8.125 7.108 -10.002 11.502 -31.366 4.725 -60.82 -5.243 -22.782 -17 -50.283 -37.618 -80.743zm328.204 10.313c-7.04 43.394 -23.035 86.45 -46.135 116.016 2.493 23.373 1.947 46.106 -1.522 66.171 -2.377 13.75 -6.245 26.672 -11.838 37.656 38.838 25.229 64.15 26.504 80.353 17.656 16.463 -8.988 27.584 -31.672 30.743 -62.775 5.502 -54.17 -14.5 -129.009 -51.6 -174.725zM302.419 345.935c-5.9 43.272 -22.572 88.308 -50.82 122.5 4.25 25.52 2.485 46.959 -5.116 63.243 15.132 16.443 28.552 26.844 39.572 32.421 11.772 5.963 20.329 6.527 27.15 4.532 13.637 -3.99 25.473 -22.162 30.468 -51.055 8.61 -49.807 -5.141 -124.125 -41.25 -171.64zm236.172 12.537c-6.387 42.485 -23.127 83.083 -49.766 108.166 1.766 17.238 1.908 34.088 0.313 49.803 -2.205 21.713 -7.842 41.848 -18.007 57.5 23.012 11.72 39.204 9.707 52.735 0.588 15.269 -10.293 27.743 -32.733 34.1 -61.485 10.457 -47.275 4.009 -109.783 -19.375 -154.572zm-352.225 11.76c-7.093 22.096 -18.853 43.998 -35.782 63.162 0.819 20.254 -3.31 37.213 -11.838 49.766 18.412 28.985 37.22 45.162 51.68 51.095 15.787 6.479 24.766 3.567 32.07 -7.382s11.162 -33.28 4.1 -64.65c-5.725 -25.438 -18.375 -56.613 -40.233 -91.99z"/></svg>